<svg width="113" height="24" viewBox="0 0 113 24" fill="none" xmlns="http://www.w3.org/2000/svg">
<path d="M45.444 6.11387C45.444 7.61596 44.9028 8.97845 44.0117 10.0436H45.444V12.2264H39.4012C39.384 12.2264 39.3668 12.2264 39.3486 12.2264C35.9773 12.2264 33.2361 9.48421 33.2361 6.11387C33.2361 2.74252 35.9783 0.00134277 39.3486 0.00134277C42.72 0.00134277 45.4612 2.74353 45.4612 6.11387H45.444ZM43.2601 6.11387C43.2601 3.94824 41.496 2.18417 39.3304 2.18417C37.1648 2.18417 35.4007 3.94824 35.4007 6.11387C35.4007 8.27951 37.1648 10.0436 39.3304 10.0436H39.4356C41.5486 9.99097 43.2601 8.2441 43.2601 6.11387Z" fill="black"/>
<path d="M62.9267 0V6.11253C62.9267 9.48388 60.1845 12.2251 56.8142 12.2251C53.4439 12.2251 50.7017 9.48287 50.7017 6.11253V0H52.8845V6.11253C52.8845 8.27816 54.6486 10.0422 56.8142 10.0422C58.9798 10.0422 60.7439 8.27816 60.7439 6.11253V0H62.9267Z" fill="black"/>
<path d="M78.6112 12.2261H76.1664L75.0487 10.0432L72.3763 4.80364L69.7039 10.0432L68.5862 12.2261H66.1414L67.2591 10.0432L72.3763 0L77.4935 10.0432L78.6112 12.2261Z" fill="black"/>
<path d="M95.3779 0.0182315V12.2443L93.1951 10.5672L85.3357 4.50628V12.2433H83.1528V0.0526254L85.3357 1.7297L93.1951 7.79065V0.0010376L95.3779 0.0182315Z" fill="black"/>
<path d="M112.826 0.0181885V2.20102H107.813V12.2432H105.63V2.20102H100.617V0.0181885H112.826Z" fill="black"/>
<path d="M41.3706 15.8301V23.9656H39.9181V18.7817L38.4888 19.8741L37.3034 20.7925L36.1179 19.8741L34.6886 18.7817V23.9656H33.2361V15.8301L34.6886 16.9458L37.3034 18.9566L39.9181 16.9458L41.3706 15.8301Z" fill="black"/>
<path d="M52.7015 23.9656H51.074L50.3305 22.5131L48.5523 19.0264L46.774 22.5131L46.0306 23.9656H44.4031L45.1465 22.5131L48.5523 15.8301L51.958 22.5131L52.7015 23.9656Z" fill="black"/>
<path d="M61.5451 15.8412V17.2937H58.2091V23.9767H56.7566V17.2937H53.4207V15.8412H61.5451Z" fill="black"/>
<path d="M71.6096 22.5242L72.353 23.9767H70.7255L69.9821 22.5242L69.2032 21.0019L69.1678 20.9321C68.9119 20.5133 68.4588 20.2351 67.9358 20.2351H66.4833V23.9777H65.0308V15.8422H70.1682C70.7721 15.8422 71.3193 16.0859 71.7138 16.4814C72.1093 16.8881 72.353 17.4343 72.353 18.0392C72.353 18.9222 71.8301 19.6899 71.0745 20.0379C70.8773 20.131 70.6679 20.1886 70.4464 20.2119L71.6096 22.5242ZM70.1682 18.7816C70.2724 18.7816 70.3776 18.7583 70.4706 18.7118C70.7377 18.5955 70.9127 18.3284 70.9127 18.0381C70.9127 17.7711 70.7731 17.585 70.6922 17.5031C70.5991 17.41 70.4251 17.2937 70.1692 17.2937H66.4853V18.7927L70.1682 18.7816Z" fill="black"/>
<path d="M75.8508 23.9656V15.8301H77.3034V23.9656H75.8508Z" fill="black"/>
<path d="M80.4988 23.9767H80.522L80.4988 24V23.9767ZM88.6576 15.8412L85.5078 19.9206L88.6455 23.9767H86.8086L84.5883 21.1061L82.368 23.9767H80.5322L83.6587 19.9206L80.5089 15.8412H82.3448L84.5762 18.7351L86.8075 15.8412H88.6323H88.6576ZM88.6343 24L88.6232 23.9767H88.6343V24Z" fill="black"/>
<path d="M107.659 23.9656H106.031L105.288 22.5131L103.51 19.0264L101.731 22.5131L100.988 23.9656H99.3604L100.104 22.5131L103.51 15.8301L106.915 22.5131L107.659 23.9656Z" fill="black"/>
<path d="M110.679 23.9656V15.8301H112.131V23.9656H110.679Z" fill="black"/>
<path d="M19.5383 1.6973H22.8793V22.3027H19.5383V24H24.5766V0H19.5383V1.6973Z" fill="black"/>
<path d="M5.03831 0H0V24H5.03831V22.3027H1.69731V1.6973H5.03831V0Z" fill="black"/>
<path d="M16.7374 15.477C17.6781 14.2804 18.1494 12.927 18.1494 11.4148C18.1494 9.58805 17.5011 8.02932 16.2063 6.73864C14.9167 5.4429 13.3579 4.79553 11.5301 4.79553C9.70337 4.79553 8.14464 5.44391 6.85497 6.73864C5.55822 8.02932 4.91187 9.58805 4.91187 11.4148C4.91187 13.2365 5.55923 14.7953 6.85497 16.091C8.14464 17.3868 9.70337 18.0341 11.5301 18.0341C12.395 18.0341 13.2275 17.8672 14.0306 17.5355L12.7268 16.2235C12.3222 16.3287 11.9236 16.3813 11.5301 16.3813C10.1626 16.3813 8.99127 15.8948 8.0182 14.9197C7.04817 13.9507 6.56467 12.7824 6.56467 11.4148C6.56467 10.0473 7.04817 8.87899 8.0182 7.90996C8.99228 6.93588 10.1636 6.44834 11.5301 6.44834C12.8977 6.44834 14.067 6.93588 15.035 7.90996C16.0101 8.88 16.4966 10.0473 16.4966 11.4148C16.4966 12.2402 16.3024 13.016 15.915 13.7403C15.5387 14.4433 15.0239 15.0229 14.3705 15.477C14.6254 15.7421 15.0128 16.1355 15.5327 16.6554C16.0324 17.1612 17.5931 18.725 18.0584 19.1893L18.3123 18.9344L19.25 17.9967L16.7374 15.477Z" fill="#FFBD59"/>
<path d="M14.8359 11.4158C14.8359 12.3292 14.5152 13.1101 13.8729 13.7575C13.2256 14.4008 12.4447 14.7214 11.5303 14.7214C11.5181 14.7214 11.507 14.7214 11.4949 14.7204V13.0666C11.507 13.0666 11.5181 13.0686 11.5303 13.0686C11.9844 13.0686 12.3749 12.9078 12.7016 12.5872C13.0233 12.2604 13.1831 11.87 13.1831 11.4158C13.1831 10.9617 13.0233 10.5712 12.7016 10.2445C12.3749 9.92285 11.9844 9.76303 11.5303 9.76303C11.5181 9.76303 11.507 9.76404 11.4949 9.76404V8.11124C11.507 8.11023 11.5181 8.11023 11.5303 8.11023C12.4447 8.11023 13.2256 8.43189 13.8729 9.07319C14.5152 9.72156 14.8359 10.5014 14.8359 11.4158Z" fill="#FFBD59"/>
</svg>
